<?xml version="1.0" standalone="no"?>
<!DOCTYPE svg PUBLIC "-//W3C//DTD SVG 20010904//EN"
 "http://www.w3.org/TR/2001/REC-SVG-20010904/DTD/svg10.dtd">
<svg version="1.0" xmlns="http://www.w3.org/2000/svg"
 width="900.000000pt" height="900.000000pt" viewBox="0 0 900.000000 900.000000"
 preserveAspectRatio="xMidYMid meet">
<metadata>
Created by potrace 1.10, written by Peter Selinger 2001-2011
</metadata>
<g transform="translate(0.000000,900.000000) scale(0.100000,-0.100000)"
fill="#000000" stroke="none">
<path d="M8960 8992 c0 -4 5 -13 12 -20 18 -18 28 -15 28 8 0 13 -7 20 -20 20
-11 0 -20 -4 -20 -8z"/>
<path d="M4369 7646 c-74 -23 -123 -76 -156 -166 -17 -47 -16 -81 3 -139 20
-63 57 -106 119 -140 l50 -28 3 -323 c2 -230 -1 -327 -9 -336 -7 -8 -30 -14
-56 -14 -24 0 -53 -5 -64 -10 -26 -14 -105 -29 -116 -21 -5 3 -37 74 -72 156
-34 83 -67 159 -73 169 -8 14 -5 31 12 67 21 44 22 50 8 86 -37 95 -158 90
-198 -8 -10 -24 -9 -35 5 -65 17 -36 66 -74 96 -74 20 0 39 -28 69 -100 24
-60 48 -116 61 -142 14 -28 39 -102 39 -115 0 -7 -24 -28 -53 -46 -29 -19 -70
-49 -90 -66 -26 -23 -42 -31 -56 -26 -11 3 -118 106 -236 228 -212 218 -216
223 -210 257 15 88 16 136 4 174 -14 45 -72 124 -98 133 -9 3 -24 13 -34 22
-28 24 -152 21 -197 -4 -97 -54 -134 -118 -134 -227 0 -58 4 -81 17 -96 9 -10
17 -23 17 -28 0 -16 51 -60 102 -88 58 -32 118 -34 182 -6 26 12 51 18 59 13
22 -15 457 -459 457 -468 0 -4 -11 -23 -25 -41 -14 -18 -25 -37 -25 -42 0 -5
-7 -15 -15 -22 -8 -7 -15 -20 -15 -29 -1 -22 -35 -61 -53 -61 -9 0 -30 7 -49
16 -75 37 -90 44 -103 44 -7 0 -43 14 -80 30 -37 17 -72 30 -79 30 -26 0 -86
51 -86 73 0 27 -44 72 -78 80 -56 13 -132 -51 -132 -111 0 -44 62 -102 110
-102 21 0 43 7 50 15 16 20 100 20 126 0 10 -8 27 -15 36 -15 9 0 29 -6 45
-14 49 -24 97 -44 118 -49 29 -8 88 -31 103 -40 15 -10 16 -51 2 -78 -6 -10
-14 -45 -18 -77 l-7 -57 -324 0 -323 0 -25 48 c-41 78 -146 147 -224 147 -70
0 -170 -68 -213 -146 -20 -35 -26 -61 -26 -106 0 -63 14 -99 60 -158 43 -54
152 -99 207 -86 15 4 41 10 56 13 32 6 124 93 149 141 l17 32 323 -2 322 -3
12 -55 c7 -30 17 -71 23 -90 10 -32 9 -37 -14 -57 -15 -13 -34 -23 -44 -23
-10 0 -24 -7 -31 -15 -7 -8 -19 -15 -28 -15 -8 0 -44 -13 -79 -30 -69 -33
-114 -38 -133 -15 -22 26 -85 19 -122 -14 -29 -26 -33 -36 -33 -79 0 -39 5
-56 23 -75 51 -54 139 -38 168 30 9 21 20 45 24 53 7 15 105 70 124 70 5 0 38
14 73 30 34 17 72 30 82 30 22 0 51 -25 51 -44 0 -7 18 -38 40 -69 36 -50 39
-59 29 -79 -20 -37 -451 -468 -468 -468 -9 0 -25 7 -35 15 -30 22 -138 20
-185 -5 -52 -26 -119 -104 -132 -154 -23 -84 7 -192 68 -246 54 -48 92 -63
162 -63 106 0 179 50 222 151 20 46 25 131 10 160 -4 9 -11 30 -15 46 -7 27 6
42 221 257 125 126 234 229 241 229 8 0 31 -13 51 -28 20 -16 52 -37 71 -48
79 -43 82 -52 45 -129 -14 -27 -25 -57 -25 -66 0 -9 -7 -22 -15 -29 -8 -7 -15
-17 -15 -24 0 -6 -10 -34 -22 -63 -18 -43 -28 -55 -55 -64 -19 -6 -50 -26 -69
-45 -44 -44 -45 -85 -4 -134 26 -32 34 -35 79 -35 42 0 55 5 78 28 23 23 28
36 27 77 0 34 -6 56 -19 71 -19 20 -19 22 -2 51 9 16 17 37 17 47 0 9 4 21 9
27 8 8 71 155 85 197 6 20 37 22 74 3 15 -7 47 -16 72 -20 25 -4 60 -12 78
-18 l32 -12 0 -311 0 -310 -61 -39 c-111 -71 -156 -192 -110 -299 20 -47 76
-117 94 -117 6 0 19 -8 29 -17 14 -12 38 -17 96 -17 75 -1 80 1 137 40 101 68
131 153 100 279 -12 45 -56 96 -119 135 l-56 35 0 311 0 311 58 17 c92 25 106
23 125 -24 42 -100 64 -178 76 -260 4 -25 11 -52 16 -60 5 -8 12 -35 16 -60 7
-48 23 -98 45 -143 8 -16 14 -34 14 -42 0 -7 7 -18 15 -25 8 -7 15 -19 15 -27
0 -8 28 -50 61 -94 61 -80 145 -154 220 -195 21 -12 44 -26 51 -31 7 -6 22
-13 33 -16 11 -3 47 -15 80 -27 149 -52 169 -54 785 -55 507 0 586 -2 670 -18
52 -10 109 -23 125 -29 17 -5 46 -13 65 -17 89 -19 272 -125 345 -200 21 -23
47 -41 57 -41 23 0 42 45 29 68 -24 43 -168 156 -256 200 -98 49 -180 77 -295
102 -161 35 -278 41 -830 44 -513 3 -549 4 -620 23 -202 55 -360 182 -444 356
-25 53 -46 105 -46 117 0 12 -5 31 -12 43 -6 12 -15 42 -19 67 -19 109 -74
310 -100 362 -15 29 -10 48 14 58 46 21 117 66 144 93 16 15 39 27 50 27 14 0
92 -73 239 -226 233 -241 241 -252 210 -313 -45 -87 17 -224 129 -282 59 -32
159 -30 211 4 43 27 80 65 109 112 26 41 26 156 1 205 -23 45 -85 110 -106
110 -8 0 -24 7 -34 15 -26 20 -136 20 -162 0 -42 -32 -55 -22 -288 217 -124
127 -226 239 -226 248 0 16 72 136 104 172 16 19 27 17 126 -22 30 -12 67 -25
81 -30 14 -4 34 -12 45 -18 10 -5 39 -18 64 -27 99 -38 110 -44 110 -67 1 -41
65 -98 110 -98 16 0 41 14 63 34 32 29 37 40 37 78 0 35 -5 49 -27 70 -42 38
-73 42 -126 13 -47 -24 -72 -24 -123 3 -10 5 -39 18 -64 27 -25 9 -58 22 -75
29 -37 16 -90 35 -131 47 -17 5 -38 17 -47 27 -15 16 -15 24 -2 78 7 32 16 76
20 97 l6 37 342 -2 342 -3 3 -28 c2 -19 23 -48 60 -85 49 -49 65 -59 114 -69
133 -27 256 54 288 190 15 64 5 110 -36 178 -55 89 -175 131 -275 96 -46 -16
-107 -62 -120 -90 -5 -12 -17 -35 -27 -52 l-19 -30 -328 -3 c-188 -1 -333 2
-338 7 -5 5 -18 53 -28 107 l-20 98 23 18 c13 10 32 20 43 23 33 10 128 48
188 76 23 11 35 10 77 -5 61 -22 101 -15 135 26 17 20 25 41 25 68 0 32 -6 44
-37 69 -52 43 -92 42 -138 -4 -24 -25 -35 -45 -35 -66 0 -19 -6 -32 -17 -35
-10 -3 -31 -12 -48 -19 -16 -7 -50 -21 -75 -30 -47 -18 -102 -42 -132 -56 -27
-13 -41 -3 -68 49 -14 26 -35 62 -47 81 -13 19 -23 41 -23 49 0 9 100 116 222
239 239 240 245 244 308 208 33 -19 80 -19 132 2 49 18 127 78 135 102 3 9 13
24 21 34 11 12 15 39 15 90 -1 61 -5 81 -26 113 -27 42 -66 80 -110 108 -43
27 -151 24 -205 -4 -102 -53 -170 -204 -127 -280 31 -53 25 -61 -201 -296
-120 -123 -225 -226 -235 -229 -13 -4 -34 7 -66 33 -27 22 -52 41 -58 43 -5 3
-27 15 -47 28 -41 25 -49 53 -23 87 8 10 15 25 15 31 0 13 46 119 75 176 8 16
15 34 15 41 0 24 41 66 65 66 36 0 85 57 85 98 0 110 -128 152 -186 61 -29
-47 -30 -58 -4 -107 15 -29 18 -45 11 -67 -13 -43 -101 -248 -112 -260 -5 -5
-9 -17 -9 -26 0 -44 -55 -57 -115 -26 -11 6 -47 13 -80 16 l-60 6 0 334 0 334
50 28 c62 34 99 77 119 140 19 57 20 88 4 143 -36 127 -181 203 -309 162z
m177 -127 c59 -57 54 -164 -10 -213 -28 -21 -46 -26 -91 -26 -45 0 -63 5 -91
26 -58 44 -68 141 -21 200 49 63 155 70 213 13z m1198 -498 c72 -48 90 -148
38 -210 -51 -62 -163 -72 -219 -20 -32 31 -46 99 -31 150 26 85 139 128 212
80z m-2428 -25 c38 -33 39 -35 39 -100 0 -61 -2 -68 -33 -98 -30 -31 -37 -33
-103 -33 -70 0 -72 0 -105 39 -29 34 -34 47 -34 91 0 48 4 56 40 94 38 39 43
41 98 41 52 0 63 -4 98 -34z m1268 -602 c39 -9 86 -22 104 -30 18 -8 39 -14
46 -14 8 0 19 -7 26 -15 7 -8 20 -15 29 -15 26 -1 136 -95 191 -163 27 -34 68
-99 90 -143 121 -244 74 -574 -109 -768 -41 -44 -185 -156 -200 -156 -5 0 -22
-6 -38 -14 -105 -53 -333 -69 -463 -32 -132 38 -250 113 -344 217 -49 54 -116
160 -116 183 0 8 -6 29 -14 47 -7 19 -19 73 -26 120 -29 197 24 389 150 546
54 67 165 162 191 163 8 0 20 5 27 12 6 6 28 18 49 25 35 13 64 21 163 43 60
13 169 11 244 -6z m-1742 -571 c68 -61 63 -176 -8 -232 -40 -31 -125 -29 -168
4 -81 62 -65 198 29 242 39 17 121 10 147 -14z m3406 0 c36 -26 55 -86 47
-142 -5 -34 -16 -53 -43 -78 -32 -29 -42 -33 -95 -33 -48 0 -65 5 -93 26 -64
49 -69 156 -10 212 17 17 40 32 51 35 39 11 116 0 143 -20z m-2970 -1176 c54
-22 77 -63 77 -133 0 -48 -5 -67 -20 -84 -89 -99 -255 -44 -255 84 0 108 99
175 198 133z m2445 -2 c48 -20 87 -78 87 -129 0 -79 -62 -136 -149 -136 -92 0
-138 59 -129 161 9 94 99 143 191 104z m-1206 -485 c50 -30 65 -61 65 -132 0
-60 -2 -64 -38 -95 -32 -28 -45 -33 -91 -33 -99 0 -144 39 -146 128 -2 92 52
152 138 152 22 0 54 -9 72 -20z"/>
<path d="M4330 6270 c-8 -5 -24 -10 -34 -10 -11 0 -53 -16 -94 -36 -87 -42
-205 -149 -240 -216 -13 -24 -27 -50 -31 -58 -21 -37 -41 -101 -52 -169 -21
-137 21 -287 118 -413 49 -65 133 -135 183 -154 8 -3 22 -10 30 -15 17 -10 15
-10 87 -34 70 -22 234 -23 288 -1 20 9 45 16 55 16 10 0 23 7 30 15 7 8 19 15
27 15 8 0 34 14 57 32 51 39 156 140 156 150 0 4 14 27 30 51 17 25 30 52 30
61 0 9 8 29 17 43 14 22 18 50 18 152 0 126 -15 198 -58 274 -22 40 -95 132
-129 163 -38 35 -129 94 -146 94 -6 0 -23 6 -39 14 -15 8 -44 19 -64 25 -44
14 -218 14 -239 1z m262 -125 c21 -4 43 -13 49 -21 6 -8 20 -14 30 -14 29 0
141 -119 179 -190 l35 -65 0 -140 c0 -118 -3 -145 -17 -168 -10 -14 -18 -31
-18 -36 0 -19 -61 -101 -103 -136 -23 -20 -76 -53 -117 -72 -72 -34 -79 -36
-185 -35 -157 0 -239 34 -337 139 -58 62 -87 119 -104 203 -27 125 -12 223 49
333 39 68 138 167 168 167 9 0 22 7 29 15 7 8 24 15 39 15 14 0 33 5 41 10 16
11 197 7 262 -5z"/>
<path d="M4306 6020 c-56 -27 -146 -103 -146 -124 0 -5 -6 -17 -13 -25 -25
-30 -50 -130 -45 -184 7 -73 58 -177 110 -222 89 -76 189 -106 290 -85 35 7
70 19 79 26 8 8 22 14 30 14 16 0 111 93 127 126 54 106 54 223 0 328 -19 38
-80 107 -102 117 -11 5 -28 13 -36 18 -64 36 -82 41 -157 41 -65 -1 -88 -6
-137 -30z"/>
<path d="M7525 3738 c-3 -7 -4 -427 -3 -933 l3 -920 65 0 65 0 3 924 c2 733 0
926 -10 933 -21 13 -118 10 -123 -4z"/>
<path d="M3015 3290 c-9 -15 4 -67 21 -81 8 -6 14 -19 14 -28 0 -10 7 -26 15
-37 8 -10 15 -25 15 -31 0 -7 27 -69 60 -138 33 -69 60 -131 60 -139 0 -7 7
-19 15 -26 8 -7 15 -20 15 -30 0 -10 7 -23 15 -30 8 -7 15 -19 15 -26 0 -8 27
-70 60 -139 33 -69 60 -131 60 -139 0 -7 7 -19 15 -26 8 -7 15 -19 15 -26 0
-8 32 -79 70 -158 66 -137 83 -197 60 -211 -5 -3 -10 -13 -10 -21 0 -7 -34
-84 -75 -169 -41 -85 -75 -161 -75 -168 0 -8 -7 -20 -15 -27 -8 -7 -15 -20
-15 -30 0 -10 -7 -23 -15 -30 -8 -7 -15 -18 -15 -25 0 -18 -39 -103 -50 -110
-6 -3 -10 -15 -10 -26 0 -17 7 -19 73 -19 39 0 77 4 82 8 10 6 56 99 102 202
8 19 19 42 24 50 5 8 12 22 15 30 14 35 92 208 110 243 8 16 14 34 14 42 0 7
7 18 15 25 8 7 15 18 15 25 0 7 27 70 60 139 33 70 60 132 60 140 0 7 7 19 15
26 8 7 15 18 15 25 0 8 6 26 14 42 16 31 98 208 123 263 8 19 19 42 24 50 5 8
12 22 15 30 13 32 34 78 78 170 26 52 46 102 46 111 0 9 7 22 15 29 8 7 15 18
15 25 0 8 6 26 14 42 50 97 77 163 71 172 -3 6 -34 11 -69 11 -49 0 -67 -4
-80 -19 -23 -25 -56 -91 -56 -112 0 -9 -7 -22 -15 -29 -8 -7 -15 -18 -15 -25
0 -8 -6 -26 -14 -42 -53 -103 -106 -222 -106 -235 0 -8 -7 -21 -15 -28 -8 -7
-15 -18 -15 -25 0 -8 -6 -26 -14 -42 -53 -103 -106 -222 -106 -235 0 -8 -7
-21 -15 -28 -8 -7 -15 -18 -15 -25 0 -13 -4 -22 -51 -115 -42 -85 -55 -89 -82
-27 -32 75 -49 112 -58 127 -5 8 -12 22 -15 30 -15 38 -114 254 -140 303 -7
16 -14 33 -14 38 0 4 -27 65 -60 133 -33 69 -60 131 -60 139 0 8 -7 20 -15 27
-8 7 -15 20 -15 30 0 10 -7 23 -15 30 -8 7 -15 19 -15 27 0 23 -38 90 -55 97
-27 10 -123 7 -130 -4z"/>
<path d="M6550 3290 c-94 -8 -209 -50 -299 -107 -53 -34 -201 -178 -201 -195
0 -5 -11 -24 -24 -41 -60 -81 -96 -215 -96 -362 0 -255 112 -460 326 -597 70
-44 89 -53 199 -89 85 -29 303 -23 385 11 30 12 64 24 74 27 30 9 146 91 199
141 28 25 52 41 57 36 5 -5 11 -59 12 -119 l3 -110 70 0 70 0 3 385 c3 389 0
443 -35 535 -40 107 -96 201 -153 261 -51 52 -154 134 -168 134 -5 0 -15 6
-21 14 -6 8 -22 16 -34 19 -12 3 -47 14 -77 26 -50 19 -90 26 -190 35 -19 1
-64 0 -100 -4z m230 -165 c14 -8 35 -14 46 -15 12 0 27 -7 34 -15 7 -8 18 -15
26 -15 40 0 183 -132 209 -193 7 -17 17 -35 21 -40 10 -10 30 -68 50 -145 16
-62 15 -173 -1 -262 -11 -59 -77 -181 -130 -238 -70 -77 -124 -110 -247 -153
-47 -17 -77 -20 -175 -17 -122 4 -142 9 -250 62 -59 28 -169 126 -196 174 -17
29 -52 101 -71 146 -24 54 -24 297 -1 332 8 13 15 31 15 41 1 10 12 36 25 58
14 22 28 47 31 55 10 23 126 140 149 151 11 5 38 20 60 34 22 13 49 24 60 25
11 0 29 7 39 15 28 21 270 21 306 0z"/>
<path d="M1241 3275 c-18 -8 -41 -15 -51 -15 -10 0 -23 -7 -30 -15 -7 -8 -19
-15 -27 -15 -8 0 -34 -14 -57 -32 -51 -39 -156 -140 -156 -150 0 -4 -13 -26
-28 -50 -77 -119 -83 -169 -80 -677 l3 -436 70 0 70 0 6 450 c3 248 10 468 16
491 23 95 118 214 206 259 107 55 238 70 338 38 101 -31 208 -120 250 -206 58
-117 53 -75 59 -572 l5 -460 70 0 70 0 6 450 c5 462 8 495 48 574 28 55 130
155 181 178 109 50 122 53 199 53 185 0 317 -85 403 -258 l33 -67 5 -465 5
-465 70 0 70 0 0 480 c0 438 -2 483 -17 512 -10 18 -18 41 -18 51 0 11 -7 25
-15 32 -8 7 -15 19 -15 27 0 22 -74 114 -132 163 -112 95 -232 140 -378 140
-163 0 -280 -51 -414 -182 -49 -49 -96 -88 -105 -88 -9 0 -26 15 -38 33 -34
49 -159 150 -213 172 -8 4 -23 10 -32 15 -9 5 -43 19 -75 30 -71 25 -248 28
-302 5z"/>
<path d="M4905 3280 c-16 -5 -46 -13 -65 -18 -31 -8 -46 -14 -100 -43 -8 -5
-35 -19 -60 -31 -58 -30 -208 -180 -238 -238 -12 -25 -27 -52 -31 -60 -21 -36
-42 -101 -56 -175 -13 -68 -15 -173 -13 -695 l3 -615 70 0 70 0 3 358 c2 383
4 391 51 331 38 -48 189 -154 219 -154 11 0 25 -7 32 -15 7 -8 23 -15 35 -15
12 0 42 -7 65 -15 91 -32 301 -16 393 31 16 8 35 14 43 14 27 0 166 104 232
175 77 83 162 239 162 298 0 13 5 28 12 35 27 27 7 287 -28 355 -8 16 -14 34
-14 40 0 7 -15 41 -32 76 -38 73 -125 172 -207 235 -54 41 -178 106 -204 106
-6 0 -30 7 -52 15 -44 16 -239 19 -290 5z m268 -155 c20 -8 47 -15 60 -15 14
0 30 -7 37 -15 7 -8 19 -15 26 -15 25 0 130 -88 173 -145 108 -143 141 -297
106 -495 -9 -49 -72 -173 -113 -220 -36 -43 -144 -130 -160 -130 -6 0 -23 -6
-39 -14 -71 -35 -101 -41 -218 -41 -70 0 -132 5 -150 12 -16 7 -41 15 -55 17
-29 6 -141 76 -184 115 -29 27 -106 136 -106 151 0 5 -6 21 -14 37 -56 110
-55 327 2 439 5 11 17 36 27 57 48 98 226 246 300 247 11 1 31 7 45 15 35 20
215 20 263 0z"/>
<path d="M7870 2070 c-55 -55 -56 -97 -1 -151 32 -32 46 -39 78 -39 57 0 113
56 113 113 0 32 -7 46 -39 78 -54 55 -96 54 -151 -1z"/>
</g>
</svg>
